<svg xmlns="http://www.w3.org/2000/svg" viewBox="0 0 64 64" fill="none">
  <rect width="64" height="64" rx="18" fill="#E9FFF7" />
  <path
    d="M41.8 17.5 26.2 23.2c-1.3.5-2.2 1.7-2.2 3.1v10.9c0 1.5.9 2.8 2.3 3.2l15.5 5.1c2.2.7 4.4-.9 4.4-3.2V20.7c0-2.3-2.2-3.9-4.4-3.2Z"
    fill="#00B986"
  />
  <path
    d="M18.5 26.5h6.6v10.4h-6.6A3.5 3.5 0 0 1 15 33.4V30a3.5 3.5 0 0 1 3.5-3.5Z"
    fill="#00B986"
  />
  <path
    d="m25 38.4 4.8 12.1a3.2 3.2 0 0 0 4 1.8 3.2 3.2 0 0 0 1.8-4l-3.8-9.6"
    fill="#00B986"
    opacity=".9"
  />
  <path
    d="M45.9 23.3 52 20.9M46 31.3h6.6M45.9 39.2l6 2.5"
    stroke="#00B986"
    stroke-linecap="round"
    stroke-width="3"
  />
</svg>
